<svg width="24" height="24" viewBox="0 0 24 24" fill="none" xmlns="http://www.w3.org/2000/svg">
<path d="M3 17.0001V11.1408C3 10.0929 3 9.56895 3.23665 9.12676C3.4733 8.68457 3.90927 8.39393 4.7812 7.81264L9.7812 4.47931C10.8567 3.76231 11.3944 3.40381 12 3.40381C12.6056 3.40381 13.1433 3.76231 14.2188 4.47931L17.4376 6.62517C19.1815 7.78775 20.0534 8.36904 20.5267 9.25341C21 10.1378 21 11.1857 21 13.2816V17.0001C21 18.8857 21 19.8285 20.4142 20.4143C19.8284 21.0001 18.8856 21.0001 17 21.0001H7C5.11438 21.0001 4.17157 21.0001 3.58579 20.4143C3 19.8285 3 18.8857 3 17.0001Z" stroke="black" stroke-width="2" class="my-path"/>
<path d="M15 17L9 17" stroke="black" stroke-width="2" stroke-linecap="round" class="my-path"/>
</svg>