<svg width="24px" height="24px" viewBox="0 0 24 24" fill="none" xmlns="http://www.w3.org/2000/svg">
<path d="M3 11C3 7.22876 3 5.34315 4.17157 4.17157C5.34315 3 7.22876 3 11 3H13C16.7712 3 18.6569 3 19.8284 4.17157C21 5.34315 21 7.22876 21 11V13C21 16.7712 21 18.6569 19.8284 19.8284C18.6569 21 16.7712 21 13 21H11C7.22876 21 5.34315 21 4.17157 19.8284C3 18.6569 3 16.7712 3 13V11Z" stroke="black" stroke-width="2" class="my-path"/>
<path d="M16.6704 9.39893L12.3611 13.7082C11.6945 14.3749 11.3611 14.7082 10.9469 14.7082C10.5327 14.7082 10.1994 14.3749 9.53269 13.7082L8 12.1755" stroke="black" stroke-width="2" stroke-linecap="round" class="my-path"/>
</svg>